# AST/ASF file generated using VICON BodyLanguage
# -----------------------------------------------
:version 1.10
:name VICON
:units
  mass 1.0
  length 0.45
  angle deg
:documentation
   .ast/.asf automatically generated from VICON data using
   VICON BodyBuilder and BodyLanguage model FoxedUp or BRILLIANT.MOD
:root
   order TX TY TZ RX RY RZ
   axis XYZ
   position 0 0 0  
   orientation 0 0 0 
:bonedata
  begin
     id 1 
     name lhipjoint
     direction 0.625129 -0.738222 0.253461 
     length 2.5165 
     axis 0 0 0  XYZ
  end
  begin
     id 2 
     name lfemur
     direction 0.34202 -0.939693 0  
     length 7.54288  
     axis 0 0 20  XYZ
    dof rx ry rz
    limits (-160.0 20.0)
           (-70.0 70.0)
           (-60.0 70.0)
  end
  begin
     id 3 
     name ltibia
     direction 0.34202 -0.939693 0   
     length 7.71864   
     axis 0 0 20   XYZ
    dof rx
    limits (-10.0 170.0)
  end
  begin
     id 4 
     name lfoot
     direction 0.0772037 -0.212115 0.97419   
     length 2.18429   
     axis -90 7.62852e-016 20   XYZ
    dof rx rz
    limits (-45.0 90.0)
           (-70.0 20.0)
  end
  begin
     id 5 
     name ltoes
     direction 1.53513e-011 -4.21834e-011 1   
     length 1.09718   
     axis -90 7.62852e-016 20   XYZ
    dof rx
    limits (-90.0 20.0)
  end
  begin
     id 6 
     name rhipjoint
     direction -0.621946 -0.740623 0.254285   
     length 2.50835  
     axis 0 0 0  XYZ 
  end
  begin
     id 7 
     name rfemur
     direction -0.34202 -0.939693 0   
     length 7.43366   
     axis 0 0 -20   XYZ
    dof rx ry rz
    limits (-160.0 20.0)
           (-70.0 70.0)
           (-70.0 60.0)
  end
  begin
     id 8 
     name rtibia
     direction -0.34202 -0.939693 0   
     length 7.77122   
     axis 0 0 -20   XYZ
    dof rx
    limits (-10.0 170.0)
 end
 begin
     id 9 
     name rfoot
     direction -0.082694 -0.2272 0.970331   
     length 2.2293  
     axis -90 -7.62852e-016 -20   XYZ
    dof rx rz
    limits (-45.0 90.0)
           (-20.0 70.0)
  end
  begin
     id 10 
     name rtoes
     direction -1.53565e-011 -4.21695e-011 1   
     length 1.1178   
     axis -90 -7.62852e-016 -20   XYZ
    dof rx
    limits (-90.0 20.0)
  end
  begin
     id 11 
     name lowerback
     direction -0.000695208 0.988391 -0.151929   
     length 1.95077   
     axis 0 0 0   XYZ
    dof rx ry rz
    limits (-20.0 45.0)
           (-30.0 30.0)
           (-30.0 30.0)
  end
  begin
     id 12 
     name upperback
     direction -0.00268925 0.999885 -0.0149203   
     length 1.96246   
     axis 0 0 0   XYZ
    dof rx ry rz
    limits (-20.0 45.0)
           (-30.0 30.0)
           (-30.0 30.0)
  end
  begin
     id 13 
     name thorax
     direction -0.000848408 0.998481 0.0550912   
     length 2.00867   
     axis 0 0 0   XYZ
    dof rx ry rz
    limits (-20.0 45.0)
           (-30.0 30.0)
           (-30.0 30.0)
  end
  begin
     id 14 
     name lowerneck
     direction -0.00577709 0.998999 0.0443608   
     length 1.75762   
     axis 0 0 0   XYZ
    dof rx ry rz
    limits (-20.0 45.0)
           (-30.0 30.0)
           (-30.0 30.0)
  end
  begin
     id 15 
     name upperneck
     direction 0.0320945 0.999136 0.0264105   
     length 1.72601   
     axis 0 0 0   XYZ
    dof rx ry rz
    limits (-20.0 45.0)
           (-30.0 30.0)
           (-30.0 30.0)
  end
  begin
     id 16
     name head
     direction 0.0120552 0.999916 0.00480151  
     length 1.79973  
     axis 0 0 0   XYZ
    dof rx ry rz
    limits (-20.0 45.0)
           (-30.0 30.0)
           (-30.0 30.0)
  end
  begin
     id 17 
     name lclavicle
     direction 0.909 0.371533 -0.188897  
     length 3.47956  
     axis 0 0 0   XYZ
    dof ry rz
    limits (-20.0 10.0)
           (0.0 20.0)
  end
  begin
     id 18 
     name lhumerus
     direction 1 -4.48963e-011 -6.48352e-028   
     length 5.52302   
     axis 180 -30 -90   XYZ
    dof rx ry rz
    limits (-60.0 90.0)
           (-90.0 90.0)
           (-90.0 90.0)
  end
  begin
     id 19
     name lradius
     direction 1 -4.48968e-011 -4.78536e-027   
     length 3.58675   
     axis 180 -30 -90   XYZ
    dof rx
    limits (-10.0 170.0)
  end
  begin
     id 20
     name lwrist
     direction 1 -4.48942e-011 -9.9435e-027   
     length 1.79337   
     axis 8.54312e-015 90 90   XYZ
    dof ry
    limits (-180.0 0.0)
 end
  begin
     id 21 
     name lhand
     direction 1 -4.4904e-011 -1.9887e-026   
     length 0.536412   
     axis 1.26896e-014 90 90   XYZ
    dof rx rz
    limits (-90.0 90.0)
           (-45.0 45.0)
  end
  begin
     id 22 
     name lfingers
     direction 1 -4.48893e-011 -3.9774e-026   
     length 0.432469   
     axis 2.53792e-014 90 90   XYZ
    dof rx
    limits (0.0 90.0)
  end
  begin
     id 23
     name lthumb
     direction 0.707107 -6.34934e-011 0.707107   
     length 0.620942   
     axis -90 45 2.85299e-015   XYZ
    dof rx rz
    limits (-45.0 45.0)
           (-45.0 45.0)
  end
  begin
     id 24 
     name rclavicle
     direction -0.89595 0.416672 -0.153813   
     length 3.44099  
     axis 0 0 0   XYZ 
    dof ry rz
    limits (-10.0 20.0)
           (-20.0 0.0)
  end
  begin
     id 25 
     name rhumerus
     direction -1 -4.48952e-011 5.57804e-028  
     length 5.8478   
     axis 180 30 90   XYZ
    dof rx ry rz
    limits (-90.0 60.0)
           (-90.0 90.0)
           (-90.0 90.0)
  end
  begin
     id 26 
     name rradius
     direction -1 -4.48967e-011 -7.93646e-027   
     length 3.62717   
     axis 180 30 90   XYZ
    dof rx
    limits (-10.0 170.0)
  end
  begin
     id 27 
     name rwrist
     direction -1 -4.49008e-011 -9.9435e-027   
     length 1.81359   
     axis 8.54312e-015 -90 -90   XYZ
    dof ry
    limits (-180.0 0.0)
  end
  begin
     id 28
     name rhand
     direction -1 -4.48812e-011 -1.9887e-026   
     length 0.650516   
     axis 1.26896e-014 -90 -90   XYZ
    dof rx rz
    limits (-90.0 90.0)
           (-45.0 45.0)
  end
  begin
     id 29
     name rfingers
     direction -1 -4.49228e-011 -3.9774e-026   
     length 0.524463   
     axis 2.53792e-014 -90 -90   XYZ
    dof rx
    limits (0.0 90.0)
  end
  begin
     id 30
     name rthumb
     direction -0.707107 -6.34912e-011 0.707107   
     length 0.753027   
     axis -90 -45 -2.85299e-015   XYZ
    dof rx rz
    limits (-45.0 45.0)
           (-45.0 45.0)
  end
:hierarchy
  begin
    root lhipjoint rhipjoint lowerback
    lhipjoint lfemur
    lfemur ltibia
    ltibia lfoot
    lfoot ltoes
    rhipjoint rfemur
    rfemur rtibia
    rtibia rfoot
    rfoot rtoes
    lowerback upperback
    upperback thorax
    thorax lowerneck lclavicle rclavicle
    lowerneck upperneck
    upperneck head
    lclavicle lhumerus
    lhumerus lradius
    lradius lwrist
    lwrist lhand lthumb
    lhand lfingers
    rclavicle rhumerus
    rhumerus rradius
    rradius rwrist
    rwrist rhand rthumb
    rhand rfingers
  end

#!OML:ASF F:\VICON\USERDATA\INSTALL\rory3\rory3.ASF
:FULLY-SPECIFIED
:DEGREES
1379
root -8.76912 17.8729 45.1533 -187.03 213.331 -177.426
lowerback 8.86312 -3.79444 -6.03018
upperback 2.392 -5.6873 -2.60154
thorax -2.14681 -2.8323 1.25554
lowerneck 0.204231 -12.425 -3.00459
upperneck 6.66641 -17.1944 7.52755
head 3.15834 -8.48658 2.37817
rclavicle 7.16122e-014 1.82882e-014
rhumerus -33.4995 -18.4159 -77.0892
rradius 22.8396
rwrist 23.3301
rhand -16.1852 16.4775
rfingers 7.12502
rthumb 10.0214 -13.2639
lclavicle 7.16122e-014 1.82882e-014
lhumerus -4.26691 -8.88568 79.9205
lradius 35.0884
lwrist 4.83694
lhand -34.4165 17.3319
lfingers 7.12502
lthumb -7.58157 47.176
rfemur -8.03994 16.4924 12.413
rtibia 43.6266
rfoot -14.5549 -4.06613
rtoes -7.06594
lfemur -5.50744 -4.07351 -18.9521
ltibia 17.5338
lfoot -4.02645 13.9752
ltoes -0.318045
1380
root -8.78652 17.8694 45.0336 -186.015 213.253 -178.55
lowerback 8.97054 -3.91098 -5.31338
upperback 2.17068 -5.77712 -2.13472
thorax -2.45333 -2.86469 1.37105
lowerneck -0.0678419 -12.2407 -3.15253
upperneck 6.89603 -16.9362 7.29642
head 3.25985 -8.35425 2.31559
rclavicle 7.20594e-015 4.21423e-014
rhumerus -33.4304 -16.8014 -77.6948
rradius 23.4258
rwrist 21.85
rhand -16.1147 16.0126
rfingers 7.12502
rthumb 10.0895 -13.7256
lclavicle 7.20594e-015 4.21423e-014
lhumerus -4.62057 -8.38195 80.3918
lradius 34.966
lwrist 4.26989
lhand -32.7401 17.7398
lfingers 7.12502
lthumb -5.96333 47.6358
rfemur -8.38711 17.1558 13.5164
rtibia 43.8906
rfoot -14.3099 -3.4125
rtoes -8.27245
lfemur -6.16398 -4.17797 -17.4977
ltibia 16.9927
lfoot -3.25064 13.901
ltoes -0.606901
1381
root -8.80426 17.8686 44.972 -186.217 213.436 -178.49
lowerback 8.86676 -3.86611 -5.02421
upperback 2.26748 -5.68149 -2.15768
thorax -2.33174 -2.82372 1.16757
lowerneck -0.494434 -12.118 -3.12696
upperneck 7.1872 -16.7678 7.06927
head 3.4003 -8.25833 2.21087
rclavicle -6.17475e-014 2.46493e-014
rhumerus -33.4033 -15.2762 -78.4041
rradius 24.1307
rwrist 20.3219
rhand -16.3675 15.7777
rfingers 7.12502
rthumb 9.84558 -13.9721
lclavicle -6.17475e-014 2.46493e-014
lhumerus -4.9703 -8.33479 80.7459
lradius 34.8455
lwrist 4.57774
lhand -34.3091 17.4196
lfingers 7.12502
lthumb -7.47795 47.2675
rfemur -7.84009 17.422 13.4132
rtibia 44.0536
rfoot -14.6662 -1.75579
rtoes -9.94759
lfemur -5.80516 -3.96921 -17.3727
ltibia 16.4542
lfoot -3.3789 14.1346
ltoes 3.50027
1382
root -8.82626 17.8561 44.8946 -186.435 213.375 -178.241
lowerback 8.80423 -3.84066 -4.97595
upperback 2.33565 -5.64037 -2.25998
thorax -2.24378 -2.80724 1.0243
lowerneck -1.07465 -12.8297 -2.81394
upperneck 7.45074 -17.7679 7.16396
head 3.63759 -8.72357 2.08536
rclavicle -6.33626e-015 -1.27222e-014
rhumerus -33.3837 -14.5615 -78.8225
rradius 24.6231
rwrist 19.3825
rhand -16.4936 15.4135
rfingers 7.12502
rthumb 9.72391 -14.342
lclavicle -6.33626e-015 -1.27222e-014
lhumerus -5.3226 -8.5255 81.0945
lradius 34.5909
lwrist 5.73389
lhand -37.7139 15.793
lfingers 7.12502
lthumb -10.7633 45.4972
rfemur -7.37838 17.8849 13.2303
rtibia 44.2
rfoot -14.9014 -0.37386
rtoes -10.7669
lfemur -6.01644 -3.98363 -17.4021
ltibia 16.6996
lfoot -3.79202 14.2629
ltoes 7.90146
1383
root -8.84876 17.8451 44.7964 -186.096 213.61 -178.649
lowerback 8.82423 -3.75176 -4.56777
upperback 2.21661 -5.48561 -2.08399
thorax -2.40747 -2.72525 0.974052
lowerneck -1.05246 -12.7869 -3.00447
upperneck 7.59239 -17.7257 7.25175
head 3.7122 -8.70235 2.14167
rclavicle -4.44781e-015 1.66979e-014
rhumerus -33.6134 -12.9195 -79.4889
rradius 25.5691
rwrist 17.6574
rhand -16.8567 14.0618
rfingers 7.12502
rthumb 9.37362 -15.7098
lclavicle -4.44781e-015 1.66979e-014
lhumerus -5.8392 -8.22543 81.5559
lradius 34.3686
lwrist 6.16023
lhand -38.0213 15.1171
lfingers 7.12502
lthumb -11.0598 44.8057
rfemur -7.24897 18.7043 13.7077
rtibia 44.1999
rfoot -15.6292 1.85992
rtoes -13.8229
lfemur -6.238 -3.73294 -16.6968
ltibia 16.385
lfoot -3.04909 14.0579
ltoes 4.27212
1384
root -8.86348 17.8339 44.6631 -185.587 213.574 -179.346
lowerback 9.43024 -3.79586 -4.20658
upperback 1.99053 -5.54187 -1.76304
thorax -2.97695 -2.73663 1.16849
lowerneck -1.00499 -12.7226 -3.07206
upperneck 7.53461 -17.6215 7.16047
head 3.67293 -8.65706 2.13455
rclavicle 3.55328e-014 -1.35174e-014
rhumerus -33.5276 -12.6973 -79.6131
rradius 25.7671
rwrist 17.619
rhand -16.9984 13.81
rfingers 7.12502
rthumb 9.23687 -15.9677
lclavicle 3.55328e-014 -1.35174e-014
lhumerus -6.40063 -7.53774 81.8408
lradius 34.2051
lwrist 5.86463
lhand -33.7088 15.0279
lfingers 7.12502
lthumb -6.89848 44.8955
rfemur -7.31331 19.2304 14.4777
rtibia 44.2097
rfoot -13.8256 2.16371
rtoes -11.1008
lfemur -6.93126 -3.74339 -15.6429
ltibia 16.472
lfoot -2.29772 13.7629
ltoes 0.898572
1385
root -8.90112 17.8137 44.6704 -187.35 212.995 -177.365
lowerback 8.78735 -3.91946 -5.1437
upperback 2.40662 -5.75986 -2.36089
thorax -2.14852 -2.87042 1.01867
lowerneck -1.00309 -12.4841 -3.05943
upperneck 7.45324 -17.2855 7.1032
head 3.61528 -8.49322 2.13781
rclavicle -4.54223e-014 3.33958e-014
rhumerus -33.3217 -12.6041 -79.6395
rradius 25.7145
rwrist 17.7347
rhand -16.8274 14.4066
rfingers 7.12502
rthumb 9.40191 -15.3637
lclavicle -4.54223e-014 3.33958e-014
lhumerus -6.95128 -7.27754 82.1376
lradius 34.0164
lwrist 6.63391
lhand -36.962 15.3063
lfingers 7.12502
lthumb -10.038 45.0469
rfemur -5.48608 18.5566 12.6185
rtibia 43.9047
rfoot -14.3632 4.32789
rtoes -11.8682
lfemur -5.69101 -4.20129 -17.6671
ltibia 16.0663
lfoot -2.38058 13.8183
ltoes 0.15641
1386
root -8.92839 17.8146 44.4999 -185.464 213.532 -179.572
lowerback 9.15897 -3.80455 -3.82869
upperback 1.9756 -5.49566 -1.58929
thorax -2.8629 -2.71837 1.11425
lowerneck -1.15212 -12.8922 -2.84435
upperneck 7.44101 -17.8386 7.05946
head 3.64328 -8.75914 2.04722
rclavicle -9.62615e-014 -1.74931e-014
rhumerus -32.649 -16.2649 -78.2425
rradius 23.917
rwrist 21.6788
rhand -16.8684 15.6543
rfingers 7.12502
rthumb 9.36234 -14.1178
lclavicle -9.62615e-014 -1.74931e-014
lhumerus -7.55637 -7.38587 82.5375
lradius 33.8976
lwrist 8.21532
lhand -37.0843 15.2054
lfingers 7.12502
lthumb -10.1559 44.9402
rfemur -6.41108 19.8415 14.94
rtibia 43.6132
rfoot -12.8959 4.76754
rtoes -11.7471
lfemur -6.86606 -3.71863 -14.904
ltibia 15.6815
lfoot -1.59002 13.7988
ltoes 0.436459
1387
root -8.97313 17.7945 44.5364 -187.914 213.079 -176.906
lowerback 8.32305 -3.76937 -4.96544
upperback 2.56348 -5.5124 -2.51854
thorax -1.77482 -2.76016 0.693963
lowerneck -1.11205 -12.6909 -2.62521
upperneck 7.37108 -17.5309 6.70716
head 3.52837 -8.61322 1.92704
rclavicle -9.90445e-014 3.4191e-014
rhumerus -33.0199 -13.9633 -79.0538
rradius 25.0091
rwrist 19.3567
rhand -16.7775 16.4379
rfingers 7.12502
rthumb 9.45007 -13.3302
lclavicle -9.90445e-014 3.4191e-014
lhumerus -8.12155 -7.15 82.7864
lradius 33.7779
lwrist 8.91061
lhand -36.6743 15.4492
lfingers 7.12502
lthumb -9.76044 45.203
rfemur -3.92602 19.3844 12.6012
rtibia 42.9578
rfoot -12.8021 6.80368
rtoes -10.942
lfemur -5.06972 -4.02598 -17.6476
ltibia 15.1822
lfoot -2.00633 13.9459
ltoes 0.483255
1388
root -8.99558 17.7875 44.3786 -187.349 213.657 -177.565
lowerback 8.95104 -3.57516 -4.77335
upperback 2.30106 -5.27883 -2.15964
thorax -2.38808 -2.62423 0.994967
lowerneck -1.14015 -12.8796 -2.68661
upperneck 7.33049 -17.8062 6.9561
head 3.57081 -8.74434 1.99752
rclavicle 8.34896e-015 1.90833e-014
rhumerus -33.293 -11.191 -80.1541
rradius 26.4256
rwrist 16.7296
rhand -16.3063 16.8757
rfingers 7.12502
rthumb 9.90465 -12.8713
lclavicle 8.34896e-015 1.90833e-014
lhumerus -8.62473 -6.15197 82.9164
lradius 33.4017
lwrist 7.97382
lhand -35.7444 16.1378
lfingers 7.12502
lthumb -8.86319 45.9317
rfemur -4.2171 20.7215 13.6319
rtibia 42.37
rfoot -10.8351 7.19589
rtoes -9.43182
lfemur -5.84194 -3.43182 -16.416
ltibia 15.1843
lfoot -1.43733 13.9991
ltoes 0.311883
1389
root -9.03246 17.7735 44.3107 -187.16 213.5 -177.875
lowerback 8.42918 -3.6808 -4.21295
upperback 2.4276 -5.3298 -2.07778
thorax -2.00963 -2.6616 0.731841
lowerneck -1.214 -12.9919 -2.72892
upperneck 7.22588 -17.9528 7.02242
head 3.56844 -8.81599 2.01386
rclavicle -2.45996e-015 3.65764e-014
rhumerus -34.3179 -6.96931 -81.7517
rradius 29.4763
rwrist 12.5076
rhand -15.7884 15.0234
rfingers 7.12502
rthumb 10.4043 -14.6992
lclavicle -2.45996e-015 3.65764e-014
lhumerus -8.89665 -4.64335 82.9901
lradius 32.6008
lwrist 5.8955
lhand -33.5221 17.0193
lfingers 7.12502
lthumb -6.71822 46.8927
rfemur -3.4653 20.7873 14.1042
rtibia 41.5063
rfoot -9.63531 8.05808
rtoes -8.68196
lfemur -5.83058 -3.58378 -15.9283
ltibia 14.9197
lfoot -1.25346 14.1247
ltoes -0.0303018
1390
root -9.06706 17.7522 44.214 -186.982 213.299 -177.975
lowerback 8.25623 -3.72638 -3.9922
upperback 2.36818 -5.36202 -2.02502
thorax -1.98964 -2.6773 0.657446
lowerneck -1.2498 -13.1236 -2.61159
upperneck 7.17618 -18.1043 6.77345
head 3.52331 -8.89476 1.90827
rclavicle -2.05245e-014 -1.98785e-014
rhumerus -32.8572 -11.1986 -80.2504
rradius 26.2047
rwrist 16.7314
rhand -16.6597 16.0573
rfingers 7.12502
rthumb 9.56369 -13.7057
lclavicle -2.05245e-014 -1.98785e-014
lhumerus -9.85678 -2.63327 83.1803
lradius 32.9936
lwrist 4.20019
lhand -31.8431 18.0918
lfingers 7.12502
lthumb -5.09727 48.0105
rfemur -3.03396 20.7301 14.3491
rtibia 40.7635
rfoot -9.42902 8.61985
rtoes -9.41835
lfemur -6.38819 -3.72748 -15.5577
ltibia 15.2895
lfoot -1.39272 14.1564
ltoes 0.72639
